<?xml version="1.0" encoding="UTF-8"?>
<svg id="Camada_2" data-name="Camada 2" xmlns="http://www.w3.org/2000/svg" viewBox="0 0 135 63">
  <defs>
    <style>
      .cls-1 {
        fill: #4E10FF;
        stroke-width: 0px;
      }
    </style>
  </defs>
  <g id="Camada_1-2" data-name="Camada 1">
    <polygon class="cls-1" points="67.5 31.5 63 15.75 67.5 0 49.5 0 45 15.75 49.5 31.5 40.5 31.5 36 47.25 54 47.25 49.5 63 67.5 63 72 47.25 67.5 31.5"/>
    <polygon class="cls-1" points="103.5 31.5 94.5 31.5 99 15.75 94.5 0 76.5 0 81 15.75 76.5 31.5 72 47.25 90 47.25 85.5 63 103.5 63 108 47.25 103.5 31.5"/>
    <g>
      <polygon class="cls-1" points="27 15.75 22.5 0 4.5 0 9 15.75 4.5 31.5 0 47.25 18 47.25 22.5 31.5 27 15.75"/>
      <polygon class="cls-1" points="18 47.25 13.5 63 31.5 63 36 47.25 18 47.25"/>
    </g>
    <polygon class="cls-1" points="135 15.75 130.5 0 112.5 0 117 15.75 112.5 31.5 108 47.25 112.5 63 130.5 63 126 47.25 130.5 31.5 135 15.75"/>
  </g>
</svg>