<?xml version="1.0" encoding="UTF-8"?>
<svg id="Camada_2" data-name="Camada 2" xmlns="http://www.w3.org/2000/svg" viewBox="0 0 306 306">
  <defs>
    <style>
      .cls-1 {
        fill: none;
        stroke: #17161A;
        stroke-miterlimit: 10;
        stroke-width: 18px;
      }
    </style>
  </defs>
  <g id="Camada_1-2" data-name="Camada 1">
    <g>
      <circle class="cls-1" cx="153" cy="153" r="144"/>
      <path class="cls-1" d="M57.77,261c7.67-6.78,16.08-12.75,25.08-17.79,20.76-11.6,44.68-18.21,70.15-18.21s49.39,6.61,70.15,18.21c9,5.04,17.41,11.01,25.08,17.79"/>
      <path class="cls-1" d="M248.23,45c-7.67,6.78-16.08,12.75-25.08,17.79-20.76,11.6-44.68,18.21-70.15,18.21s-49.39-6.61-70.15-18.21c-9-5.04-17.41-11.01-25.08-17.79"/>
      <ellipse class="cls-1" cx="153" cy="153" rx="81" ry="144"/>
      <line class="cls-1" x1="9" y1="153" x2="297" y2="153"/>
      <line class="cls-1" x1="153" y1="9" x2="153" y2="297"/>
    </g>
  </g>
</svg>